# xmcd
#
# Track frame offsets: 
#        150
#        19526
#        42279
#        53358
#        78895
#        95342
#        110243
#        123323
#        144476
#        156562
#        179593
#        204327
#        223050
#        249551
#
# Disc length: 3506 seconds
#
# Revision: 1
# Processed by: cddbd v1.5.2PL0 Copyright (c) Steve Scherf et al.
# Submitted via: ExactAudioCopy v0.99pb5
#
DISCID=bf0db00e
DTITLE=Szõke Nikoletta - My song
DYEAR=2010
DGENRE=Jazz
TTITLE0=Your song
TTITLE1=The way we were
TTITLE2=On a clear day
TTITLE3=Throw it away
TTITLE4=Who ca I turn to?
TTITLE5=The best is yet to come
TTITLE6=Meditacao
TTITLE7=Moon and sand
TTITLE8=Whatever Lola wants
TTITLE9=Highwire
TTITLE10=Sleep, my love
TTITLE11=I believe I can fly
TTITLE12=Eveything happens to me
TTITLE13=Two of us
EXTD=
EXTT0=
EXTT1=
EXTT2=
EXTT3=
EXTT4=
EXTT5=
EXTT6=
EXTT7=
EXTT8=
EXTT9=
EXTT10=
EXTT11=
EXTT12=
EXTT13=
PLAYORDER=
